<svg xmlns="http://www.w3.org/2000/svg" viewBox="0 0 400 220" width="400" height="220" role="img" aria-labelledby="t">
  <title id="t">Neatly labelled storage boxes arranged on open shelving</title>
  <defs>
    <linearGradient id="sky" x1="0" y1="0" x2="0" y2="1">
      <stop offset="0" stop-color="#EEF3FA"/>
      <stop offset="1" stop-color="#DFE9F8"/>
    </linearGradient>
    <linearGradient id="tee" x1="0" y1="0" x2="0" y2="1">
      <stop offset="0" stop-color="#3E8BFF"/><stop offset="1" stop-color="#1F66DE"/>
    </linearGradient>
    <linearGradient id="tee2" x1="0" y1="0" x2="0" y2="1">
      <stop offset="0" stop-color="#9B7BFF"/><stop offset="1" stop-color="#6F45E8"/>
    </linearGradient>
  </defs>
  <rect width="400" height="220" fill="url(#sky)"/>
  <rect x="66" y="30" width="268" height="162" rx="8" fill="#FFFFFF"/>
  <g fill="#CBDAF0"><rect x="66" y="82" width="268" height="8"/><rect x="66" y="134" width="268" height="8"/></g>
  <g>
    <rect x="86" y="42" width="56" height="40" rx="5" fill="#2A7DFF"/><rect x="94" y="56" width="40" height="9" rx="4" fill="#FFFFFF" opacity="0.85"/>
    <rect x="152" y="50" width="44" height="32" rx="5" fill="#845EF7"/><rect x="159" y="60" width="30" height="8" rx="4" fill="#FFFFFF" opacity="0.85"/>
    <rect x="206" y="46" width="50" height="36" rx="5" fill="#C06CFF"/><rect x="214" y="58" width="34" height="8" rx="4" fill="#FFFFFF" opacity="0.85"/>
    <rect x="266" y="54" width="48" height="28" rx="5" fill="#5C9CFF"/>
    <rect x="90" y="98" width="48" height="36" rx="5" fill="#845EF7"/><rect x="98" y="110" width="32" height="8" rx="4" fill="#FFFFFF" opacity="0.85"/>
    <rect x="148" y="104" width="56" height="30" rx="5" fill="#2A7DFF"/><rect x="157" y="114" width="38" height="8" rx="4" fill="#FFFFFF" opacity="0.85"/>
    <rect x="214" y="96" width="42" height="38" rx="5" fill="#5C9CFF"/>
    <rect x="266" y="106" width="48" height="28" rx="5" fill="#C06CFF"/>
    <rect x="94" y="150" width="60" height="34" rx="5" fill="#C06CFF"/><rect x="103" y="162" width="42" height="8" rx="4" fill="#FFFFFF" opacity="0.85"/>
    <rect x="164" y="146" width="46" height="38" rx="5" fill="#5C9CFF"/>
    <rect x="220" y="154" width="52" height="30" rx="5" fill="#2A7DFF"/>
    <rect x="282" y="150" width="34" height="34" rx="5" fill="#845EF7"/>
  </g>
  <path d="M348 60l5 12 12 5-12 5-5 12-5-12-12-5 12-5z" fill="#2A7DFF" opacity="0.9"/>
  <path d="M44 128l4.5 10.799999999999999 10.799999999999999 4.5-10.799999999999999 4.5-4.5 10.799999999999999-4.5-10.799999999999999-10.799999999999999-4.5 10.799999999999999-4.5z" fill="#2A7DFF" opacity="0.6"/>
</svg>
