<svg xmlns="http://www.w3.org/2000/svg" viewBox="0 0 400 220" width="400" height="220" role="img" aria-labelledby="t">
  <title id="t">A HogarPlus cleaner in a branded T-shirt outside an office building</title>
  <defs>
    <linearGradient id="sky" x1="0" y1="0" x2="0" y2="1">
      <stop offset="0" stop-color="#EEF3FA"/>
      <stop offset="1" stop-color="#DFE9F8"/>
    </linearGradient>
    <linearGradient id="tee" x1="0" y1="0" x2="0" y2="1">
      <stop offset="0" stop-color="#3E8BFF"/><stop offset="1" stop-color="#1F66DE"/>
    </linearGradient>
    <linearGradient id="tee2" x1="0" y1="0" x2="0" y2="1">
      <stop offset="0" stop-color="#9B7BFF"/><stop offset="1" stop-color="#6F45E8"/>
    </linearGradient>
  </defs>
  <rect width="400" height="220" fill="url(#sky)"/>
  <rect x="78" y="34" width="128" height="158" rx="6" fill="#FFFFFF"/>
  <rect x="214" y="76" width="86" height="116" rx="6" fill="#F4F8FE"/>
  <g fill="#BFD6F7">
    <rect x="94" y="52" width="28" height="24" rx="3"/><rect x="132" y="52" width="28" height="24" rx="3"/><rect x="170" y="52" width="22" height="24" rx="3"/>
    <rect x="94" y="90" width="28" height="24" rx="3"/><rect x="132" y="90" width="28" height="24" rx="3"/><rect x="170" y="90" width="22" height="24" rx="3"/>
    <rect x="94" y="128" width="28" height="24" rx="3"/><rect x="132" y="128" width="28" height="24" rx="3"/><rect x="170" y="128" width="22" height="24" rx="3"/>
    <rect x="228" y="94" width="26" height="22" rx="3"/><rect x="264" y="94" width="24" height="22" rx="3"/>
    <rect x="228" y="128" width="26" height="22" rx="3"/><rect x="264" y="128" width="24" height="22" rx="3"/>
  </g>
  <rect x="126" y="164" width="40" height="28" rx="3" fill="#2A7DFF"/>
  <rect x="0" y="192" width="400" height="28" fill="#CBDAF0"/>
  <g transform="translate(332 192) scale(0.6)">
    <g>
      <path d="M-31 -74h29v60a8 8 0 0 1-8 8h-13a8 8 0 0 1-8-8z" fill="#0D255F"/>
      <path d="M2 -74h29v60a8 8 0 0 1-8 8h-13a8 8 0 0 1-8-8z" fill="#132F6E"/>
      <rect x="-38" y="-8" width="40" height="14" rx="7" fill="#FFFFFF"/>
      <rect x="-2" y="-8" width="40" height="14" rx="7" fill="#FFFFFF"/>
      <path d="M0 -186c13 0 24 3 34 9l17 9a9 9 0 0 1 3 12l-10 23a9 9 0 0 1-12 3l-8-4v62a8 8 0 0 1-8 8h-68a8 8 0 0 1-8-8v-62l-8 4a9 9 0 0 1-12-3l-10-23a9 9 0 0 1 3-12l17-9c10-6 21-9 34-9z" fill="url(#tee2)"/>
      <path d="M-17 -186h34c0 11-8 19-17 19s-17-8-17-19z" fill="#12305F" opacity="0.35"/>
      <path d="M-13 -142l13-11 13 11v15a3 3 0 0 1-3 3h-20a3 3 0 0 1-3-3z" fill="#FFFFFF"/>
      <path d="M22 -146l2.4 6 6 2.4-6 2.4-2.4 6-2.4-6-6-2.4 6-2.4z" fill="#FFFFFF" opacity="0.9"/>
      <path d="M35 -160l21 16a9 9 0 0 1 2 13l-5 8a9 9 0 0 1-13 2l-19-13z" fill="url(#tee2)"/>
      <circle cx="56" cy="-129" r="10" fill="#B0764E"/>
      <path d="M-35 -160l-21 16a9 9 0 0 0-2 13l5 8a9 9 0 0 0 13 2l19-13z" fill="url(#tee2)"/>
      <circle cx="-56" cy="-129" r="10" fill="#B0764E"/>
      <rect x="-10" y="-212" width="20" height="24" rx="9" fill="#9C6743"/>
      <ellipse cx="0" cy="-232" rx="28" ry="31" fill="#B0764E"/>
      <path d="M-28 -236c0-19 12-31 28-31s28 12 28 31c0 4-1 8-2 11-2-13-6-19-12-21-8-2-15 3-26 2-9-1-14 4-15 20-1-4-1-8-1-12z" fill="#2B1B12"/>
      
      <ellipse cx="-10" cy="-232" rx="2.7" ry="3.2" fill="#241610"/>
      <ellipse cx="10" cy="-232" rx="2.7" ry="3.2" fill="#241610"/>
      <path d="M-7 -219c4 4 10 4 14 0" stroke="#8A5533" stroke-width="2.5" stroke-linecap="round" fill="none"/>
    </g>
    <g transform="translate(-128 -60)">
      <path d="M0 18h62l-8 52a8 8 0 0 1-8 7H16a8 8 0 0 1-8-7z" fill="#2A7DFF"/>
      <path d="M0 18h62l-2 15H2z" fill="#5C9CFF"/>
      <path d="M5 18C5 5 17 0 31 0s26 5 26 18" stroke="#D7DEEE" stroke-width="5" fill="none" stroke-linecap="round"/>
    </g>
  </g>
  <path d="M318 52l5 12 12 5-12 5-5 12-5-12-12-5 12-5z" fill="#2A7DFF" opacity="0.9"/>
</svg>
